<svg version="1.1" xmlns="http://www.w3.org/2000/svg" xmlns:xlink="http://www.w3.org/1999/xlink" width="86.42" height="16.18" viewBox="0,0,256,47.92709"><g fill="#e2231b" fill-rule="nonzero" stroke="none" stroke-width="1" stroke-linecap="butt" stroke-linejoin="miter" stroke-miterlimit="10" stroke-dasharray="" stroke-dashoffset="0" font-family="none" font-weight="none" font-size="none" text-anchor="none" style="mix-blend-mode: normal"><g transform="translate(-0.07345,0.0005) scale(2.96228,2.96228)"><g id="Layer_2"><g id="Layer_1-2"><path d="M23.01,0.15h1.95v7.11h4.77l-0.73,1.77h-5.99z" id="polygon4"></path><path d="M34.16,0.15h1.84l3.77,8.85h-2l-0.81,-2h-3.8l-0.81,2h-2zM36.22,5.31l-1.22,-2.88l-1.14,2.88z" id="path6"></path><path d="M45.36,1.95h-2.79v-1.8h7.53v1.8h-2.79v7.08h-1.95z" id="polygon8"></path><path d="M51.67,0.15h4.06c0.94934,-0.06125 1.88321,0.26326 2.59,0.9c0.50904,0.53918 0.78251,1.25883 0.76,2v0c0.02571,0.62641 -0.16106,1.24312 -0.53,1.75c-0.35366,0.45973 -0.833,0.80708 -1.38,1l2.17,3.2h-2.28l-1.9,-2.84h-1.54v2.84h-1.95zM55.6,4.46c0.3993,0.02768 0.79471,-0.09343 1.11,-0.34c0.2606,-0.22898 0.40391,-0.56337 0.39,-0.91v0c0.04007,-0.38105 -0.11397,-0.75675 -0.41,-1c-0.33063,-0.2293 -0.72824,-0.3419 -1.13,-0.32h-1.94v2.57z" id="path10"></path><path d="M64.89,9.18c-0.64762,0.00634 -1.29006,-0.11602 -1.89,-0.36c-0.55557,-0.23585 -1.06122,-0.57522 -1.49,-1c-0.42804,-0.40679 -0.76834,-0.89683 -1,-1.44c-0.2329,-0.56445 -0.35185,-1.16939 -0.35,-1.78v0c-0.0045,-0.61186 0.11809,-1.21798 0.36,-1.78c0.23873,-0.54513 0.57797,-1.04042 1,-1.46c0.42847,-0.42983 0.93843,-0.76981 1.5,-1c0.60321,-0.24477 1.24906,-0.36714 1.9,-0.36c0.64446,-0.00716 1.28378,0.11526 1.88,0.36c0.55984,0.23342 1.06921,0.573 1.5,1c0.42532,0.40911 0.76522,0.89857 1,1.44c0.23394,0.56764 0.35291,1.17605 0.35,1.79v0c0.00538,0.61194 -0.11725,1.21824 -0.36,1.78c-0.23151,0.5491 -0.57166,1.04572 -1,1.46c-0.42654,0.42751 -0.93275,0.76725 -1.49,1c-0.60321,0.24477 -1.24906,0.36714 -1.9,0.36M64.9,7.39c0.72376,0.00352 1.41747,-0.28913 1.92,-0.81c0.47831,-0.53674 0.7418,-1.23107 0.74,-1.95v0c0.00036,-0.36924 -0.06744,-0.73538 -0.2,-1.08c-0.12606,-0.33074 -0.31639,-0.63322 -0.56,-0.89c-0.22204,-0.2691 -0.49361,-0.49314 -0.8,-0.66c-0.70238,-0.30133 -1.49762,-0.30133 -2.2,0c-0.31479,0.13662 -0.59751,0.3376 -0.83,0.59c-0.23564,0.2572 -0.42207,0.55548 -0.55,0.88c-0.12915,0.34527 -0.19356,0.71138 -0.19,1.08v0c-0.00356,0.36862 0.06085,0.73473 0.19,1.08c0.12531,0.32815 0.31581,0.62751 0.56,0.88c0.24102,0.25661 0.52973,0.46381 0.85,0.61c0.34312,0.15138 0.71502,0.22645 1.09,0.22" id="path12"></path><path d="M70.88,0.15h4.12c0.84887,-0.06532 1.6874,0.22021 2.32,0.79c0.40833,0.39401 0.63008,0.94292 0.61,1.51v0c0.00643,0.22748 -0.02743,0.45431 -0.1,0.67c-0.05465,0.18883 -0.13904,0.36774 -0.25,0.53c-0.09809,0.15445 -0.21953,0.29276 -0.36,0.41c-0.13942,0.11791 -0.29015,0.22175 -0.45,0.31c0.47348,0.15842 0.89743,0.43761 1.23,0.81c0.31634,0.39146 0.47346,0.88781 0.44,1.39v0c0.00749,0.36969 -0.07125,0.73604 -0.23,1.07c-0.15863,0.30376 -0.38852,0.56454 -0.67,0.76c-0.32116,0.21217 -0.6763,0.36776 -1.05,0.46c-0.45606,0.10212 -0.92273,0.14912 -1.39,0.14h-4.22zM74.58,3.74c0.34678,0.01468 0.6914,-0.06114 1,-0.22c0.26725,-0.1388 0.43073,-0.41905 0.42,-0.72v0c0.01292,-0.2653 -0.1118,-0.51853 -0.33,-0.67c-0.29813,-0.18717 -0.64939,-0.27147 -1,-0.24h-1.89v1.85zM75.1,7.32c0.34916,0.0145 0.69545,-0.06861 1,-0.24c0.2408,-0.15775 0.37828,-0.43271 0.36,-0.72v0c0.00969,-0.27805 -0.1173,-0.54324 -0.34,-0.71c-0.33273,-0.21392 -0.72526,-0.31556 -1.12,-0.29h-2.22v2z" id="path14"></path><path d="M79.67,0.15h6.69v1.74h-4.76v1.8h3.48v1.74h-3.48v1.86h4.82v1.74h-6.75z" id="polygon16"></path><path d="M23.75,14.26v-2.44h-0.75v2.46c-0.0665,0.50801 0.10246,1.0186 0.45885,1.38667c0.35639,0.36808 0.86126,0.55341 1.37115,0.50333c0.5188,0.05385 1.0336,-0.13344 1.39651,-0.50806c0.36292,-0.37462 0.53377,-0.89511 0.46349,-1.41194v-2.43h-0.69v2.47c0,0.77 -0.4,1.22 -1.1,1.22c-0.7,0 -1.11,-0.46 -1.11,-1.25" id="path18"></path><path d="M28.39,11.82v4.28h0.72v-3.14l2.39,3.14h0.66v-4.28h-0.73v3.05l-2.32,-3.05z" id="polygon20"></path><rect x="34.19" y="11.82" width="0.74" height="4.27" id="rect22"></rect><path d="M37.31,11.82h-0.82l1.73,4.28h0.7l1.73,-4.28h-0.79l-1.28,3.44z" id="polygon24"></path><path d="M42.76,14.26h2.13v-0.63h-2.13v-1.18h2.43v-0.63h-3.16v4.28h3.19v-0.63h-2.46z" id="polygon26"></path><path d="M47.57,14v-1.54h1.12c0.57,0 0.91,0.29 0.91,0.78c0.00227,0.22742 -0.09482,0.4445 -0.26586,0.5944c-0.17104,0.1499 -0.39898,0.21768 -0.62414,0.1856zM49.47,14.46c0.55272,-0.17362 0.91582,-0.70176 0.88,-1.28c0.02718,-0.36568 -0.09556,-0.72667 -0.34,-1c-0.34343,-0.29516 -0.78789,-0.44571 -1.24,-0.42h-1.94v4.34h0.74v-1.45h1l1,1.45h0.86l-1.07,-1.56z" id="path28"></path><path d="M53.71,13.64c-0.73,-0.19 -1.08,-0.3 -1.08,-0.72c0,-0.42 0.22,-0.54 0.71,-0.54c0.41409,0.0186 0.81375,0.15761 1.15,0.4l0.37,-0.55c-0.4371,-0.31259 -0.96268,-0.47727 -1.5,-0.47c-0.87,0 -1.46,0.49 -1.46,1.24c0,0.75 0.43,1 1.4,1.27c0.7,0.18 1,0.32 1,0.7c0,0.38 -0.21,0.57 -0.79,0.57c-0.48568,-0.02443 -0.94819,-0.21508 -1.31,-0.54l-0.43,0.51c0.49411,0.39465 1.10763,0.60973 1.74,0.61c1,0 1.54,-0.49 1.54,-1.27c0,-0.78 -0.37,-1 -1.34,-1.25" id="path30"></path><rect x="56.66" y="11.82" width="0.74" height="4.27" id="rect32"></rect><path d="M60.42,16.1h0.74v-3.62h1.38v-0.66h-3.5v0.66h1.38z" id="polygon34"></path><path d="M66.98,11.82l-1.17,1.95l-1.16,-1.95h-0.85l1.63,2.58v1.7h0.74v-1.72l1.63,-2.56z" id="polygon36"></path><path d="M17.27,4.23c-0.05329,0.08764 -0.12493,0.1627 -0.21,0.22c0.33,0 0.21,-0.22 0.21,-0.22" id="path38"></path><path d="M11.36,13c0.04531,0.08173 0.1107,0.15056 0.19,0.2c0.15144,0.08407 0.29531,0.1811 0.43,0.29c0,0 0.08,0.1 0.06,0.12c-0.02,0.02 -0.08,0 -0.2,-0.12c-0.12,-0.12 -0.19,0 -0.2,0c-0.01,0 0,0.27 0,0.4c0,0.13 -0.08,0.15 -0.08,0c0,-0.15 -0.07,-0.49 -0.22,-0.47c-0.09494,0.01816 -0.17198,0.08749 -0.2,0.18c0,0.07 -0.09,0.14 -0.08,0.08c0.00838,-0.11008 -0.01231,-0.22043 -0.06,-0.32c-0.08,-0.17 -0.1,-0.18 -0.19,-0.2c-0.09,-0.02 -0.1,-0.09 0,-0.16c0.15843,-0.07411 0.34157,-0.07411 0.5,0M18.2,4.52c-0.05,-0.44 -0.29,-0.48 -0.52,-0.57c-0.23,-0.09 -0.66,-0.22 -0.81,-0.31c-0.15622,-0.07984 -0.32563,-0.13066 -0.5,-0.15c-0.19,0 -0.66,0 -0.87,0c-0.20236,-0.05154 -0.41199,-0.06844 -0.62,-0.05c-0.11941,0.23871 -0.33964,0.41123 -0.6,0.47l-1,0.29c0.01763,-0.46374 0.16297,-0.91361 0.42,-1.3c0.5,-0.83 0.64,-1.11 0.42,-1.33c-0.22,-0.22 -1.22,0.28 -1.22,0.28c0.00546,-0.07991 0.00546,-0.16009 0,-0.24c0.27,-0.21 1.36,-0.81 1.8,-0.61c0.44,0.2 -0.11,1.09 -0.17,1.17c-0.34863,0.48685 -0.65,1.00587 -0.9,1.55l0.29,-0.08c0,0 0.65,-1.05 0.88,-1.33c0.23,-0.28 0.75,-1.08 0.33,-1.43c-0.42,-0.35 -1.13,-0.17 -2.24,0.57c0.07634,-0.47117 -0.16275,-0.93719 -0.59,-1.15c-0.9,-0.3 -3.82,-0.11 -7.15,2.55c-0.90855,0.65869 -1.75838,1.39477 -2.54,2.2c-1.17,1.22 -2.27,2.49 -1.92,2.68c0.35,0.19 1.38,-0.91 1.5,-1c0.88209,-0.03527 1.7211,-0.39079 2.36,-1c0.52395,0.28217 1.13688,0.35028 1.71,0.19c0,0 -0.39,1 0.77,0.89c0,0 -0.1,0.48 0.3,0.4c0,0 -2.31,1.35 -2.27,1.4c0.60277,-0.21812 1.18504,-0.48918 1.74,-0.81c0.24949,-0.16644 0.52252,-0.29453 0.81,-0.38c0.89968,-0.09893 1.77027,-0.3778 2.56,-0.82c0.97369,-0.42164 1.66409,-1.31199 1.83,-2.36c0,0 -0.34,0.31 -0.43,0.3c-0.09,-0.01 0.06,-0.36 0.09,-0.59c0.03,-0.23 0.3,-1.1 0.05,-1c-0.25,0.1 -1,0.89 -1.33,0.38c-0.33,-0.51 0.37,-1.06 0.37,-1.06c0,0 -1.81,1 -2.14,0.49c-0.33,-0.51 0.2,-0.82 0.2,-0.82c-1.40116,0.58662 -2.741,1.31012 -4,2.16c-2.09,1.4 -3.32,3.1 -3.72,3.17c-0.4,0.07 3.22,-4.27 7.11,-5.8c2.1,-0.84 3.51,-0.95 4.08,-0.69c0.34,0.16 0.3,0.58 0.3,0.68c0,0.1 -0.3,2.79 0.19,3.48c0,0 0.42,-0.23 0.77,-0.38c0,0 -0.16,0 -0.08,-0.15c0.08,-0.15 0.18,-0.13 0.37,-0.19c0.32857,-0.05218 0.6483,-0.14978 0.95,-0.29c0.24,-0.18 0.22,-0.25 0.33,-0.29c0.24711,0.04697 0.49857,0.06709 0.75,0.06c0.21195,-0.03435 0.42805,-0.03435 0.64,0c0.3226,0.15599 0.65697,0.2864 1,0.39c0.31,0 0.35,0.08 0.45,0.26c0.07297,0.13623 0.11721,0.28599 0.13,0.44v0c-0.21155,-0.07537 -0.43562,-0.10932 -0.66,-0.1c0.12,0 0.24,0.07 0.07,0.11c-0.17,0.04 -0.69,0.2 -0.69,0.2c0.12634,-0.13405 0.27973,-0.23972 0.45,-0.31h-0.62c0.12809,-0.11481 0.21282,-0.27015 0.24,-0.44h0.16c0.17,-0.06 0,-0.1 -0.38,-0.12c-0.21977,-0.02606 -0.43712,-0.06953 -0.65,-0.13l-0.09,0.17c0.10811,-0.02885 0.22189,-0.02885 0.33,0c0.00334,0.12553 0.09592,0.23073 0.22,0.25c0.06275,0.01214 0.12725,0.01214 0.19,0c-0.07842,0.19998 -0.28977,0.31412 -0.5,0.27c-0.13241,-0.03889 -0.24394,-0.12883 -0.31,-0.25c-0.09985,0.21636 -0.24676,0.40768 -0.43,0.56c-0.6367,0.27884 -1.21901,0.66818 -1.72,1.15c-0.45,0.54 -0.62,0.73 -1,0.82c-0.38,0.09 -0.38,0.1 -0.43,0.15c-0.4104,0.53505 -0.94615,0.9609 -1.56,1.24c-0.37,0.2 -0.53,0.2 -0.59,0.13c-0.06,-0.07 0,-0.27 0,-0.26c-0.17044,0.02842 -0.33563,0.08236 -0.49,0.16c-0.28037,0.15753 -0.58425,0.26895 -0.9,0.33c-0.27,0 -0.53,-0.06 -0.55,-0.46l-0.2,0.06c-0.53499,0.25085 -1.09469,0.44524 -1.67,0.58c-0.21,0 0.18,-0.49 0.18,-0.49c0,0 -1,0.61 -1.25,0.72c-0.25,0.11 -0.87,0.38 -0.61,-0.28c-1.16236,0.67747 -2.40102,1.21456 -3.69,1.6c-0.72,0.23 -0.89,0.13 -0.88,0.31c0.01,0.18 0.08,0.11 0.19,0.12c0.22608,0.023 0.45392,0.023 0.68,0c0.67737,-0.10237 1.34597,-0.25614 2,-0.46c1,-0.33 1.33,-0.68 2,-0.49c0.44392,0.17394 0.94372,0.12951 1.35,-0.12c0,0 0.15,0.19 0.73,0.19c0.43395,0.25516 0.94816,0.33729 1.44,0.23c0.28503,0.13049 0.59675,0.19215 0.91,0.18c0.04676,0.26398 0.06686,0.532 0.06,0.8c0,0.45 0,0.58 0.25,0.36c0.11486,0.32779 0.21167,0.66162 0.29,1c0,0.19 0,0.31 0.11,0.33h0.18c0.06344,0.12134 0.17664,0.20897 0.31,0.24c0,0 0,0.07 -0.36,0.23c-0.2,0.07 -0.38,0.26 -0.31,0.34h0.34c0.13398,-0.12902 0.33574,-0.15727 0.5,-0.07c0.09955,0.04483 0.15387,0.15346 0.13,0.26c0.00398,0.03321 0.00398,0.06679 0,0.1c-0.03256,0.03574 -0.05953,0.0762 -0.08,0.12c0,0.08 -0.1,0.18 -0.08,0.22c0.02,0.04 0.17,0.25 -0.21,0.3c0,0 0,0.07 0.14,0.07c0.14,0 0.4,-0.19 0.42,-0.29c0.09504,-0.10906 0.16957,-0.23441 0.22,-0.37c0.09,-0.22 0.1,-0.26 0.13,-0.22c0.06462,0.14653 0.06462,0.31347 0,0.46c-0.06,0.15 -0.11,0.18 -0.06,0.24c0.05,0.06 0,0 0.08,0.06c0.08,0.06 0,0.08 -0.06,0.17c-0.06,0.09 0.27,0 0.33,-0.18c0,0 0.14,-0.15 0.08,-0.75c0,0 0,-0.06 0.07,0c0.07045,0.04097 0.12903,0.09955 0.17,0.17c0,0.11 0,0.21 0,0.24c0,0.03 0.07,0.16 0,0.23c-0.07,0.07 -0.19,0.09 -0.15,0.1c0.04,0.01 0.34,0 0.39,-0.34c0.05264,-0.40407 -0.14516,-0.79967 -0.5,-1c-0.41,-0.25 -0.55,-0.38 -0.61,-1.88c0.00676,-0.51882 0.08758,-1.03402 0.24,-1.53v0c0.14,-0.5 0.3,-0.78 0.31,-0.72c0.01,0.06 -0.12,0.47 -0.13,0.66c0.54253,-0.27638 1.06693,-0.58701 1.57,-0.93c0.2001,-0.16943 0.38421,-0.35688 0.55,-0.56c0.24762,-0.31684 0.3971,-0.69922 0.43,-1.1l0.46,-0.9c0,0 0.18,0.31 0.33,0.12c0.15,-0.19 0.47,-0.7 0.52,-0.7c0.05,0 0.08,0.23 0.19,0.16c0.11,-0.07 0.15,-0.32 0.43,-0.45c0.24967,-0.11156 0.50699,-0.20513 0.77,-0.28c0.39183,-0.10557 0.79444,-0.16596 1.2,-0.18c0.01215,0.09294 0.01215,0.18706 0,0.28c0.10912,-0.21608 0.15092,-0.45992 0.12,-0.7" id="path40"></path><path d="M4.93,10.07c-0.40013,-0.08092 -0.81604,-0.01338 -1.17,0.19c-1.17697,0.48418 -2.42867,0.76158 -3.7,0.82c0,0 0.18,0.27 0.9,0.38c0,0 -0.06,0.41 0.66,0.25c1.31289,-0.4375 2.59003,-0.97576 3.82,-1.61c-0.16506,0.05793 -0.34494,0.05793 -0.51,0" id="path42"></path><path d="M6.79,10.16c-0.23449,0.02091 -0.46783,-0.05089 -0.65,-0.2l-2.54,1.32c0,0 -1.16,0.54 -1,0.67c0,0 0.36,0.21 1.18,-0.11c0.82,-0.32 3.1,-1.58 3.1,-1.58l-0.14,-0.1" id="path44"></path><path d="M7.87,10.4c-0.19862,0.01491 -0.39784,-0.01944 -0.58,-0.1c0,0 -1.38,0.87 -1.64,1c-0.26,0.13 -0.67,0.31 -0.21,0.38c0.63813,0.08517 1.27647,-0.15515 1.7,-0.64c0.25493,-0.20328 0.49862,-0.42027 0.73,-0.65" id="path46"></path><path d="M12.73,13.06c0.32431,0.06324 0.62316,0.21961 0.86,0.45c0,0.05 -0.23,-0.06 -0.29,-0.08c-0.06,-0.02 -0.15,0 -0.08,0.06c0.07867,0.1181 0.13306,0.25068 0.16,0.39h-0.05c-0.06835,-0.19957 -0.21185,-0.3646 -0.4,-0.46c-0.11,-0.05 -0.15,0 -0.15,0.06c0,0.06 0,0.23 -0.06,0c-0.08482,-0.17504 -0.20785,-0.32882 -0.36,-0.45c-0.06,0 0,-0.08 0,-0.08c0,0 0.07,0 0.13,0c0.09983,0.01893 0.19294,0.06376 0.27,0.13M12.26,9.76c-0.27,0.14 -0.61,0.29 -0.61,0.29c-0.08731,0.45109 -0.11755,0.91137 -0.09,1.37c0,1.14 0.17,1.46 0.54,1.68c0.34917,0.17679 0.58324,0.52035 0.62,0.91c0,0.15 0,0.19 0,0.24c0,0.05 0,0.09 0,0.19c0,0.1 -0.22,0.12 -0.15,0.13c0.142,0.02787 0.28281,-0.0532 0.33,-0.19c0.14597,-0.22507 0.14597,-0.51493 0,-0.74c0,0 0.2,0 0.28,0.34c0.05,0.23 0,0.32 0.16,0.39c0,0 0,0.09 -0.08,0.2c-0.08,0.11 0,0.07 0.11,0c0.15613,-0.08814 0.24316,-0.26221 0.22,-0.44c-0.03143,-0.19894 -0.10287,-0.38945 -0.21,-0.56c0.09105,0.0241 0.16747,0.08596 0.21,0.17c0.08,0.13 0.07,0.21 0.26,0.2c0.05444,0.04857 0.0869,0.11711 0.09,0.19c0,0.13 -0.16,0.23 -0.11,0.22c0.05,-0.01 0.42,-0.15 0.14,-0.6c-0.03432,-0.13723 -0.12515,-0.2535 -0.25,-0.32c-0.28847,-0.24436 -0.63143,-0.41584 -1,-0.5c-0.10418,-0.11005 -0.19176,-0.23469 -0.26,-0.37v-0.12c-0.13945,-1.08038 0.04867,-2.17775 0.54,-3.15c0,0 -0.53,0.31 -0.8,0.45" id="path48"></path><path d="M7.23,14.17l0.58,0.23c-0.01746,0.21655 0.08157,0.42605 0.26,0.55c-0.03562,0.10931 -0.10581,0.20407 -0.2,0.27c0,0 -0.07,0 -0.06,0h0.05c0.4172,-0.1854 0.65586,-0.62981 0.58,-1.08c-0.01539,-0.20065 -0.10871,-0.3873 -0.26,-0.52c0.42001,0.06492 0.84574,0.08504 1.27,0.06c0.34,-0.07 0,-0.08 0,-0.08c-0.62526,-0.09808 -1.2571,-0.14823 -1.89,-0.15c-0.32971,0.11957 -0.55213,0.42937 -0.56,0.78c-0.05844,0.32572 0.06867,0.65698 0.33,0.86h0.06v-0.06c-0.17369,-0.27738 -0.22097,-0.61562 -0.13,-0.93" id="path50"></path><path d="M16.9,14.89c-0.38512,0.01671 -0.7709,-0.01013 -1.15,-0.08h-0.08c0.31887,0.12202 0.65872,0.1798 1,0.17c0.11,0 0,0.07 0,0.07c-0.59,0.48 -1.56,0.34 -3,0.34c-1.15262,0.05141 -2.29776,0.21214 -3.42,0.48c-0.2,0 -0.36,-0.14 -0.5,-0.21c-0.10539,-0.05686 -0.21587,-0.10373 -0.33,-0.14c1.45937,-0.2979 2.94132,-0.47185 4.43,-0.52c1.08,-0.08 2,0.07 2.11,-0.75c0.035,-0.20994 -0.00388,-0.42551 -0.11,-0.61c-0.141,-0.21293 -0.33832,-0.38255 -0.57,-0.49h-0.14c-0.40617,0.12917 -0.82539,0.21301 -1.25,0.25c-0.12,0 -0.05,0 -0.05,0c0.42313,0.02925 0.84788,-0.02511 1.25,-0.16h0.11c0.24887,0.08214 0.44261,0.27961 0.52,0.53c0.23,0.64 -0.27,0.79 -0.7,0.81c-0.43,0.02 -2.23,0.21 -2.92,0.25c-0.69,0.04 -2.49,0.28 -3.15,0.38c-0.5,0.08 -1.14,0.12 -1.14,0.12c-0.18,0 0.11,0.09 0.79,0.19c0.42886,0.06697 0.82868,0.25818 1.15,0.55c0.19063,0.07498 0.3983,0.09575 0.6,0.06c0.28,0 0.88,-0.2 1.27,-0.27c1.26641,-0.19814 2.54952,-0.26849 3.83,-0.21c0.63167,0.11411 1.27376,-0.13731 1.66,-0.65c0.16,-0.19 -0.21,-0.13 -0.21,-0.13" id="path52"></path></g></g></g></g></svg>