<svg version="1.1" xmlns="http://www.w3.org/2000/svg" xmlns:xlink="http://www.w3.org/1999/xlink" width="72.09" height="12.45" viewBox="0,0,256,44.20834"><g fill="#8dc152" fill-rule="nonzero" stroke="none" stroke-width="1" stroke-linecap="butt" stroke-linejoin="miter" stroke-miterlimit="10" stroke-dasharray="" stroke-dashoffset="0" font-family="none" font-weight="none" font-size="none" text-anchor="none" style="mix-blend-mode: normal"><g transform="translate(0.00248,-0.00191) scale(3.55112,3.55112)"><g id="Layer_2"><g id="Layer_1-2"><path d="M2.89,7.53c0,0.83 0.18,1.1 1.06,1.07l1.31,-0.06c1.36,-0.06 1.56,-1 1.76,-2c0.00472,-0.05869 0.05131,-0.10528 0.11,-0.11h0.32c0.06,0 0.12,0 0.1,0.11l-0.25,2.55c0,0.09 0,0.16 -0.16,0.16h-7c-0.03389,0.00963 -0.07034,0.00245 -0.09804,-0.01931c-0.0277,-0.02177 -0.0433,-0.05548 -0.04196,-0.09069v-0.32c0,-0.06 0.05,-0.09 0.11,-0.1c0.86,-0.12 1,-0.36 1,-1.19v-5.53c0,-0.87 -0.11,-1.11 -1,-1.23c-0.05869,-0.00472 -0.10528,-0.05131 -0.11,-0.11v-0.32c-0.00014,-0.02835 0.01175,-0.05543 0.03273,-0.0745c0.02098,-0.01907 0.04906,-0.02834 0.07727,-0.0255h3.79c0.05523,0 0.1,0.04477 0.1,0.1v0.32c-0.00387,0.05539 -0.04523,0.10088 -0.1,0.11c-0.86,0.12 -1,0.36 -1,1.19z" id="path4"></path><path d="M9.3,5.93c0.08,1.48 1,2.25 2,2.25c0.66939,0.01142 1.32597,-0.18415 1.88,-0.56c0.1,0 0.31,0.23 0.28,0.32c-0.56102,0.91441 -1.56762,1.45965 -2.64,1.43c-1.1438,0.04857 -2.2207,-0.53924 -2.79856,-1.52752c-0.57786,-0.98828 -0.56195,-2.21507 0.04134,-3.18803c0.60329,-0.97297 1.69508,-1.53265 2.83723,-1.45445c1.86,0 2.81,1.47 2.49,2.61c0,0.12 -0.11,0.12 -0.23,0.12zM10.78,3.93c-0.62,0 -1.21,0.31 -1.42,1.31h2.13c0.12,0 0.17,0 0.18,-0.12c0.06,-0.41 -0.11,-1.21 -0.89,-1.21z" id="path6"></path><path d="M19.91,8.17c0.03492,0.03219 0.05478,0.07751 0.05478,0.125c0,0.04749 -0.01986,0.09281 -0.05478,0.125c-0.3426,0.55779 -0.93647,0.91262 -1.59,0.95c-0.71,0 -1.06,-0.31 -1.14,-0.71h-0.05c-0.48639,0.47827 -1.14831,0.73508 -1.83,0.71c-0.38074,0.03883 -0.76091,-0.07878 -1.05321,-0.32582c-0.2923,-0.24704 -0.47162,-0.60229 -0.49679,-0.98418c0,-1.3 1.49,-1.6 3.38,-2.13v-0.93c0,-0.71 -0.23,-1.07 -0.95,-1.07c-0.94,0 -0.79,0.67 -0.35,1.19c0.17,0.19 -1.4,0.79 -1.54,0.59c-0.76,-1.08 0.12,-2.49 2.13,-2.49c1.07,0 2.37,0.24 2.37,1.42v2.71c0,1 0.57,1 0.89,0.76c0.1,-0.05 0.18,0 0.23,0.06zM17.16,6.58c-1.18,0.36 -1.79,0.61 -1.73,1.33c0.03156,0.33214 0.31658,0.58209 0.65,0.57c0.40357,-0.03465 0.78385,-0.20366 1.08,-0.48z" id="path8"></path><path d="M22.61,4.39h0.05c0.30372,-0.68873 0.96841,-1.14861 1.72,-1.19c0.42098,-0.01961 0.81359,0.21203 1,0.59c0.13,0.37 -0.5,1.44 -0.76,1.23c-0.26,-0.21 -0.46,-0.47 -0.87,-0.51c-0.45477,-0.01822 -0.88502,0.20642 -1.13,0.59v2.49c0,0.83 0,1.07 0.83,1.18c0.06,0 0.1,0.05 0.1,0.11v0.26c0.00284,0.02821 -0.00643,0.05629 -0.0255,0.07727c-0.01907,0.02098 -0.04615,0.03287 -0.0745,0.03273h-3.28c-0.06075,0 -0.11,-0.04925 -0.11,-0.11v-0.26c0,-0.06 0.05,-0.09 0.11,-0.11c0.86,-0.11 0.83,-0.35 0.83,-1.18v-2.25c0.08119,-0.52072 -0.25567,-1.01508 -0.77,-1.13c-0.06,0 -0.11,0 -0.11,-0.11v-0.26c0,-0.06 0,-0.09 0.09,-0.11c1.38,-0.29 2.14,-0.53 2.27,-0.53c0.13,0 0.18,0.07 0.16,0.25z" id="path10"></path><path d="M28,4.27v0c0.46572,-0.64631 1.20389,-1.04123 2,-1.07c1,0 2,0.27 2,1.8v2.59c0,0.83 0,1.07 0.83,1.18c0.06,0 0.1,0.05 0.1,0.11v0.26c0.00284,0.02821 -0.00643,0.05629 -0.0255,0.07727c-0.01907,0.02098 -0.04615,0.03287 -0.0745,0.03273h-3.12c-0.02835,0.00014 -0.05543,-0.01175 -0.0745,-0.03273c-0.01907,-0.02098 -0.02834,-0.04906 -0.0255,-0.07727v-0.26c0,-0.06 0,-0.09 0.1,-0.11c0.62,-0.11 0.6,-0.35 0.6,-1.18v-1.42c0,-1.19 0.11,-2 -0.72,-2c-0.59367,0.0476 -1.14572,0.32363 -1.54,0.77v2.65c0,0.83 0,1.07 0.71,1.18c0.06,0 0.11,0.05 0.11,0.11v0.26c0,0.06075 -0.04925,0.11 -0.11,0.11h-3.2c-0.02835,0.00014 -0.05543,-0.01175 -0.0745,-0.03273c-0.01907,-0.02098 -0.02834,-0.04906 -0.0255,-0.07727v-0.26c0,-0.06 0,-0.09 0.1,-0.11c0.87,-0.11 0.83,-0.35 0.83,-1.18v-2.25c0.08119,-0.52072 -0.25567,-1.01508 -0.77,-1.13c-0.06,0 -0.1,0 -0.1,-0.11v-0.26c0,-0.06 0,-0.09 0.09,-0.11c1.38,-0.29 2.14,-0.53 2.27,-0.53c0.13,0 0.17,0.07 0.16,0.25z" id="path12"></path><path d="M34.16,7.48c0.55228,0 1,0.44772 1,1c0,0.55228 -0.44772,1 -1,1c-0.55228,0 -1,-0.44772 -1,-1c0,-0.55228 0.44772,-1 1,-1z" id="path14"></path><path d="M39,5.34c-0.02835,0.00014 -0.05543,-0.01175 -0.0745,-0.03273c-0.01907,-0.02098 -0.02834,-0.04906 -0.0255,-0.07727v-0.42c-0.00326,-0.02739 0.00623,-0.05476 0.02573,-0.07427c0.01951,-0.01951 0.04688,-0.02899 0.07427,-0.02573c0.53305,0.00841 1.04298,-0.21732 1.39513,-0.61758c0.35215,-0.40025 0.5111,-0.93478 0.43487,-1.46242c0.0467,-0.44687 -0.10281,-0.89202 -0.40979,-1.22011c-0.30698,-0.32809 -0.74122,-0.50682 -1.19021,-0.48989h-0.67v6.61c0,0.83 0.26,1.07 1.25,1.19c0.06,0 0.11,0 0.11,0.1v0.32c0,0.06075 -0.04925,0.11 -0.11,0.11h-4c-0.06075,0 -0.11,-0.04925 -0.11,-0.11v-0.32c0,-0.06 0,-0.09 0.11,-0.1c0.86,-0.12 1,-0.36 1,-1.19v-5.53c0,-0.83 -0.14,-1.07 -1,-1.19c-0.05869,-0.00472 -0.10528,-0.05131 -0.11,-0.11v-0.36c-0.00014,-0.02835 0.01175,-0.05543 0.03273,-0.0745c0.02098,-0.01907 0.04906,-0.02834 0.07727,-0.0255h4.4c0.63921,-0.05803 1.2749,0.14349 1.76395,0.55918c0.48905,0.41569 0.79034,1.01061 0.83605,1.65082c-0.03,1.7 -1.42,2.96 -3.81,2.89z" id="path16"></path><path d="M45.35,4.27v0c0.46155,-0.65106 1.20226,-1.04734 2,-1.07c0.88,0 1.9,0.27 1.9,1.78v2.61c0,0.83 0,1.07 0.83,1.18c0.06,0 0.11,0.05 0.11,0.11v0.26c0,0.06075 -0.04925,0.11 -0.11,0.11h-3.02c-0.04097,-0.02058 -0.06488,-0.06441 -0.06,-0.11v-0.26c0,-0.06 0,-0.09 0.11,-0.11c0.61,-0.11 0.59,-0.35 0.59,-1.18v-1.42c0,-1.19 0.12,-2 -0.71,-2c-0.59482,0.04341 -1.14838,0.32019 -1.54,0.77v2.65c0,0.83 0,1.07 0.71,1.18c0.06,0 0.1,0.05 0.1,0.11v0.26c0.00284,0.02821 -0.00643,0.05629 -0.0255,0.07727c-0.01907,0.02098 -0.04615,0.03287 -0.0745,0.03273h-3.2c-0.06075,0 -0.11,-0.04925 -0.11,-0.11v-0.26c0,-0.06 0.05,-0.09 0.11,-0.11c0.86,-0.11 0.83,-0.35 0.83,-1.18v-5.46c0.07992,-0.52702 -0.26758,-1.02409 -0.79,-1.13c-0.06,0 -0.11,-0.05 -0.11,-0.11v-0.25c0,-0.06 0,-0.09 0.09,-0.11c1.35,-0.29 2.11,-0.53 2.24,-0.53c0.13,0 0.18,0.07 0.16,0.25v1.05z" id="path18"></path><path d="M51,4.92c-0.20555,-0.51932 -0.61889,-0.92904 -1.14,-1.13c-0.06,0 -0.1,0 -0.1,-0.1v-0.26c-0.00284,-0.02821 0.00643,-0.05629 0.0255,-0.07727c0.01907,-0.02098 0.04615,-0.03287 0.0745,-0.03273h3.26c0.06075,0 0.11,0.04925 0.11,0.11v0.26c0,0.06 0,0.09 -0.11,0.1c-0.74,0.17 -0.38,0.8 -0.1,1.43l0.89,2.07l0.77,-2c0.23,-0.66 0.5,-1.33 -0.49,-1.49c-0.06,0 -0.11,0 -0.11,-0.1v-0.27c0,-0.06075 0.04925,-0.11 0.11,-0.11h2.61c0.06075,0 0.11,0.04925 0.11,0.11v0.26c0,0.06 0,0.09 -0.11,0.1c-0.61,0.21 -0.8,0.34 -1.18,1.21l-1.72,4.25c-0.72,1.81 -1.3,3.2 -2.68,3.2c-0.46619,0.00639 -0.92322,-0.12968 -1.31,-0.39c-0.37,-0.31 0.27,-1.44 0.59,-1.22c0.66,0.45 0.91,0.64 1.21,0.58c0.3,-0.06 0.74,-0.58 1.22,-1.71c0.11062,-0.27254 0.11062,-0.57746 0,-0.85z" id="path20"></path><path d="M60,7.94c0,-0.66 -0.7,-0.86 -1.41,-1.12c-1.22,-0.46 -1.76,-1.15 -1.59,-2.16c0.17,-1.01 1.11,-1.46 2.3,-1.46c0.66693,0.00142 1.32555,0.14815 1.93,0.43c0.11971,0.03766 0.19544,0.15546 0.18,0.28v1.32c0,0.06075 -0.04925,0.11 -0.11,0.11h-0.3c-0.06,0 -0.09,0 -0.1,-0.11c-0.36,-1.2 -1.06,-1.38 -1.63,-1.38c-0.32,0 -0.82,0.09 -0.82,0.63c0,0.54 0.37,0.7 0.95,0.92c1,0.34 2.37,0.93 2.27,2.31c-0.1,1.23 -1.45,1.66 -2.67,1.66c-0.66051,-0.00142 -1.31261,-0.14823 -1.91,-0.43c-0.08266,-0.06737 -0.11793,-0.17708 -0.09,-0.28l-0.12,-1.32c0,-0.06075 0.04925,-0.11 0.11,-0.11h0.26c0.06,0 0.09,0 0.11,0.11c0.14413,0.79427 0.83278,1.37375 1.64,1.38c0.74,0 1,-0.41 1,-0.78z" id="path22"></path><path d="M62.25,9.25c-0.02835,0.00014 -0.05543,-0.01175 -0.0745,-0.03273c-0.01907,-0.02098 -0.02834,-0.04906 -0.0255,-0.07727v-0.26c0,-0.06 0,-0.09 0.1,-0.11c0.75,-0.11 0.83,-0.23 0.83,-1.06v-2.37c0.08119,-0.52072 -0.25567,-1.01508 -0.77,-1.13c-0.06,0 -0.1,0 -0.1,-0.11v-0.26c0,-0.06 0,-0.09 0.09,-0.11c1.38,-0.29 2.18,-0.53 2.31,-0.53c0.13,0 0.18,0.07 0.17,0.25v1.17v3.09c0,0.83 0.09,1 0.83,1.06c0.06,0 0.11,0.05 0.11,0.11v0.26c0,0.06075 -0.04925,0.11 -0.11,0.11zM63.79,0.07c0.55228,0 1,0.44772 1,1c0,0.55228 -0.44772,1 -1,1c-0.55228,0 -1,-0.44772 -1,-1c0,-0.55228 0.44772,-1 1,-1z" id="path24"></path><path d="M65.71,6.23c0.02577,-0.84112 0.38914,-1.63644 1.00813,-2.20652c0.619,-0.57008 1.44147,-0.8669 2.28187,-0.82348c0.8415,-0.04869 1.66299,0.26864 2.25324,0.87038c0.59025,0.60175 0.89167,1.42921 0.82676,2.26962c-0.01972,0.84248 -0.38377,1.64008 -1.00732,2.20694c-0.62355,0.56687 -1.45214,0.85348 -2.29268,0.79306c-0.82716,0.01987 -1.6258,-0.30276 -2.20706,-0.89159c-0.58126,-0.58883 -0.89352,-1.39158 -0.86294,-2.21841zM67.61,6.55c0.16,1.3 0.57,2.26 1.64,2.11c1.07,-0.15 1.09,-1.33 0.94,-2.64c-0.15,-1.31 -0.6,-2.26 -1.65,-2.11c-1.05,0.15 -1.08,1.33 -0.93,2.64z" id="path26"></path></g></g></g></g></svg>