<svg version="1.1" xmlns="http://www.w3.org/2000/svg" xmlns:xlink="http://www.w3.org/1999/xlink" width="65.57" height="16.74" viewBox="0,0,256,65.35417"><g fill="#205681" fill-rule="nonzero" stroke="none" stroke-width="1" stroke-linecap="butt" stroke-linejoin="miter" stroke-miterlimit="10" stroke-dasharray="" stroke-dashoffset="0" font-family="none" font-weight="none" font-size="none" text-anchor="none" style="mix-blend-mode: normal"><g transform="translate(0,0.0122) scale(3.90422,3.90422)"><g id="Layer_2"><g id="Layer_1-2"><path d="M62.8,6.35c-0.02193,0.71788 -0.61779,1.28424 -1.33585,1.26973c-0.71806,-0.01451 -1.29056,-0.60448 -1.28347,-1.32266c0.00709,-0.71818 0.59111,-1.29674 1.30933,-1.29707c0.35448,-0.00017 0.69389,0.14333 0.94074,0.39772c0.24686,0.25439 0.38008,0.59797 0.36926,0.95228z" id="path4"></path><path d="M65.4,6.31h-2v0.17c-0.0724,0.99866 -0.90372,1.77189 -1.905,1.77189c-1.00128,0 -1.8326,-0.77323 -1.905,-1.77189v-0.17h-2.19v0.18c0.01874,1.62095 1.01394,3.07032 2.52,3.67c-1.49718,0.61625 -2.48672,2.06129 -2.52,3.68v0.16h2.17v-0.17c0.0724,-0.99866 0.90372,-1.77189 1.905,-1.77189c1.00128,0 1.8326,0.77323 1.905,1.77189v0.17h2.17v-0.18c-0.03068,-1.61954 -1.0211,-3.06587 -2.52,-3.68c1.50606,-0.59968 2.50126,-2.04905 2.52,-3.67v-0.16z" id="path6"></path><path d="M29.42,7.89c0,-0.49 0,-1.06 -0.06,-1.58h2.86c0,0.46 0.06,0.92 0.06,1.38v0c0.67966,-1.10879 1.91122,-1.75718 3.21,-1.69c1.19137,-0.0577 2.29266,0.6326 2.76,1.73c0.69361,-1.12403 1.94036,-1.78565 3.26,-1.73c1.64,0 3.63,0.6 3.63,3.62v4.38h-2.94v-4c0,-1.15 -0.45,-2 -1.65,-2c-0.49804,0.00998 -0.97049,0.22256 -1.30829,0.58867c-0.3378,0.36611 -0.51176,0.8541 -0.48171,1.35133v4.06h-2.95v-3.93c0,-1.15 -0.26,-2.09 -1.6,-2.09c-1,0 -1.84,0.94 -1.84,2.35v3.67h-2.95z" id="path8"></path><path d="M53.18,10.65c0,0.8 -0.43,2 -2.35,2c-0.83,0 -1.28,-0.32 -1.28,-0.8c0,-0.64 0.42,-1.17 2.4,-1.17zM50,8.58c0,-0.54 0.35,-1 1.44,-1c1.09,0 1.74,0.3 1.74,1.53h-2.18c-2.89,0 -4.61,0.83 -4.61,2.66c0,1.61 1.29,2.5 3.48,2.5c1.30842,0.11972 2.58141,-0.46723 3.34,-1.54v0c0,0.42 0,1 0.06,1.25h2.86c0,-0.57 -0.07,-1.15 -0.07,-1.72v-3c0.06,-2.52 -1.66,-3.26 -4.67,-3.26c-2,0 -4.28,0.55 -4.43,2.56z" id="path10"></path><path d="M7.28,10.21c0.03356,0.58976 -0.18047,1.16679 -0.59051,1.59201c-0.41004,0.42523 -0.9789,0.66009 -1.56949,0.64799c-0.616,0.01667 -1.20979,-0.23055 -1.63194,-0.67945c-0.42216,-0.4489 -0.63249,-1.05674 -0.57806,-1.67055c-0.02868,-0.59535 0.19458,-1.17528 0.6151,-1.5977c0.42051,-0.42242 0.99943,-0.6483 1.5949,-0.6223c0.60753,-0.01447 1.19205,0.23246 1.6052,0.67812c0.41314,0.44566 0.61517,1.04718 0.5548,1.65188zM0.06,16.74h2.85v-3.83c0.83322,0.85216 1.98924,1.31021 3.18,1.26c2.5,0 4.22,-1.5 4.22,-4c0.04251,-1.10167 -0.38565,-2.16941 -1.17754,-2.93649c-0.79188,-0.76708 -1.8727,-1.16105 -2.97246,-1.08351c-1.29771,-0.0851 -2.55176,0.4856 -3.34,1.52c0.00495,-0.41416 -0.01509,-0.82825 -0.06,-1.24h-2.76c0.04117,0.41204 0.0612,0.82591 0.06,1.24z" id="path12"></path><path d="M11.57,8c0,-0.47 0,-1 -0.06,-1.53h2.77c0,0.54 0.06,1.07 0.06,1.61v0c0.7,-1.43 1.48,-1.71 3.35,-1.71v2.4c-0.22828,-0.03635 -0.45887,-0.0564 -0.69,-0.06c-0.66242,-0.08061 -1.32661,0.13565 -1.81458,0.59083c-0.48797,0.45518 -0.74983,1.10275 -0.71542,1.76917v2.82h-2.9z" id="path14"></path><path d="M23.32,12.63c-0.50176,0.06507 -1.00671,-0.09408 -1.38048,-0.4351c-0.37377,-0.34101 -0.57843,-0.8293 -0.55952,-1.3349h6.76c0,-2.91 -1.27,-4.71 -4.91,-4.71c-2.55,0 -4.79,1.25 -4.79,4.13c0,2.88 2.25,3.89 4.84,3.89c1.95,0 3.88,-0.17 4.59,-2.2h-3.06c-0.18,0.36 -0.53,0.66 -1.49,0.66zM23.26,7.7c1,0 1.82,0.4 1.84,1.62h-3.68c0.02016,-0.46216 0.2278,-0.89615 0.575,-1.20185c0.34721,-0.30569 0.804,-0.45669 1.265,-0.41815z" id="path16"></path><path d="M35.45,4c12.15,-8.21 28.18,-1.82 30.12,1.67c-2.72,-2.34 -7.43,-2.95 -8.18,0.1c-2,-2.06 -9.03,-8.68 -21.94,-1.77z" id="path18"></path></g></g></g></g></svg>